# xmcd
#
# Track frame offsets:
#	183
#	12695
#	38960
#	51563
#	69138
#	101290
#	119148
#	135605
#	160828
#	180815
#	198953
#
# Disc length: 2894 seconds
#
# Revision: 1
# Processed by: cddbd v1.4PL0 Copyright (c) Steve Scherf et al.
# Submitted via: audiograbber 1.81.03
#
DISCID=930b4c0b
DTITLE=Studebaker John and The Hawks - Rockin' The Blues '85
DYEAR=1985
DGENRE=Blues
TTITLE0=Come On
TTITLE1=Rockin' The Blues
TTITLE2=She Knows She Got A Good Thing
TTITLE3=I Heard Talk
TTITLE4=Tahthat Cadillac - You're Fine
TTITLE5=She Gets Me
TTITLE6=Studebaker '63
TTITLE7=Boogie Feelin'
TTITLE8=Pleasure And Pain
TTITLE9=Can't Help Myself
TTITLE10=Low Rider
EXTD=
EXTT0=
EXTT1=
EXTT2=
EXTT3=
EXTT4=
EXTT5=
EXTT6=
EXTT7=
EXTT8=
EXTT9=
EXTT10=
PLAYORDER=
